<?xml version="1.0" encoding="UTF-8"?>
<svg width="49px" height="38px" viewBox="0 0 49 38" version="1.1" xmlns="http://www.w3.org/2000/svg" xmlns:xlink="http://www.w3.org/1999/xlink">
    <title>noun-car-1053444-FFFFFF</title>
    <defs>
        <linearGradient x1="69.7865773%" y1="63.6461833%" x2="22.4077186%" y2="19.9291962%" id="linearGradient-1">
            <stop stop-color="#CE43FF" offset="0%"></stop>
            <stop stop-color="#4280FF" offset="51.4675754%"></stop>
            <stop stop-color="#70ED9B" offset="100%"></stop>
        </linearGradient>
    </defs>
    <g id="Portal-visuals" stroke="none" stroke-width="1" fill="none" fill-rule="evenodd">
        <g id="Your-GoShorty---Portal" transform="translate(-570, -616)" fill="url(#linearGradient-1)" fill-rule="nonzero">
            <g id="Form---Step-1" transform="translate(240, 348)">
                <g id="Group-2" transform="translate(181, 246)">
                    <g id="noun-car-1053444-FFFFFF" transform="translate(149, 22)">
                        <path d="M13.5724432,0 C11.9542182,0 10.5034284,0.982302167 9.91832386,2.4972761 C9.90962358,2.51692214 9.89004808,2.53001988 9.88352273,2.54966592 L8.07386364,6.70592509 L3.89772727,6.70592509 C1.75742955,6.70592509 0,8.4696878 0,10.6176984 C0,12.765709 1.75742955,14.5294718 3.89772727,14.5294718 L3.96732955,14.5294718 C2.89066591,15.7300509 2.22727273,17.3126985 2.22727273,19.0524876 L2.22727273,30.1764533 C2.22727273,30.7942341 2.7253633,31.2941029 3.34090909,31.2941029 L6.68181818,31.2941029 L6.68181818,36.8823505 C6.68181818,37.5001313 7.17990875,38 7.79545455,38 L14.4772727,38 C15.0928352,38 15.5909091,37.5001145 15.5909091,36.8823505 L15.5909091,31.2941029 L33.4090909,31.2941029 L33.4090909,36.8823505 C33.4090909,37.5001313 33.9071815,38 34.5227273,38 L41.2045455,38 C41.820108,38 42.3181818,37.5001145 42.3181818,36.8823505 L42.3181818,31.2941029 L45.6590909,31.2941029 C46.2746534,31.2941029 46.7727273,30.7942173 46.7727273,30.1764533 L46.7727273,19.0524876 C46.7727273,17.3126985 46.1093341,15.7301068 45.0326705,14.5294718 L45.1022727,14.5294718 C47.2425705,14.5294718 49,12.765709 49,10.6176984 C49,8.4696878 47.2425705,6.70592509 45.1022727,6.70592509 L40.9261364,6.70592509 L39.1164773,2.54966592 C39.1099519,2.53001988 39.0903764,2.51692214 39.0816761,2.4972761 C38.4965716,0.982358049 37.0458375,0 35.4275568,0 L13.5724432,0 Z M13.5724432,2.23529905 L35.4275568,2.23529905 C35.9582714,2.23529905 36.8544034,2.86179749 37.0284091,3.33551324 C37.032759,3.35297651 37.0392843,3.37043979 37.0458097,3.38790306 L40.9435369,12.3637464 C40.6564303,12.3244543 40.3715176,12.2938933 40.0735085,12.2938933 L8.92621307,12.2938933 C8.62822625,12.2938933 8.34328011,12.3244543 8.05618466,12.3637464 L11.9539119,3.38790306 C11.9604373,3.37043979 11.9669626,3.35297651 11.9713125,3.33551324 C12.1453182,2.86181984 13.0414614,2.23529905 13.5721648,2.23529905 L13.5724432,2.23529905 Z M3.89772727,8.94119619 L7.09943182,8.94119619 L5.63778409,12.2941448 L3.89772727,12.2941448 C2.95375341,12.2941448 2.22727273,11.5650461 2.22727273,10.6176705 C2.22727273,9.67029486 2.95375341,8.94119619 3.89772727,8.94119619 Z M41.9005682,8.94119619 L45.1022727,8.94119619 C46.0462466,8.94119619 46.7727273,9.67029486 46.7727273,10.6176705 C46.7727273,11.5650461 46.0462466,12.2941448 45.1022727,12.2941448 L43.3622159,12.2941448 L41.9005682,8.94119619 Z M8.92635227,14.5294438 L40.0736477,14.5294438 C42.5597295,14.5294438 44.5455659,16.520257 44.5455659,19.0524597 L44.5455659,29.0587759 L4.45465682,29.0587759 L4.45465682,19.0524597 C4.45465682,16.5203129 6.44049318,14.5294438 8.926575,14.5294438 L8.92635227,14.5294438 Z M7.69088409,19.0000419 C7.11669318,19.0546145 6.67947955,19.5392184 6.68164308,20.1176914 L6.68164308,25.7059391 C6.68164308,26.3237198 7.1797417,26.8235886 7.7952875,26.8235886 L12.3716648,26.8235886 C14.4727625,26.8235886 16.1475602,25.033617 16.1475602,22.9118152 C16.1475602,20.7900135 14.4727625,19.0000419 12.3716648,19.0000419 L7.7952875,19.0000419 C7.76048636,18.9978591 7.72568523,18.9978591 7.69088409,19.0000419 Z M36.6281682,19.0000419 C34.5270705,19.0000419 32.8522727,20.7900135 32.8522727,22.9118152 C32.8522727,25.033617 34.5270705,26.8235886 36.6281682,26.8235886 L41.2045455,26.8235886 C41.820108,26.8235886 42.3181818,26.3237031 42.3181818,25.7059391 L42.3181818,20.1176914 C42.3181818,19.4999107 41.8200912,19.0000419 41.2045455,19.0000419 L36.6281682,19.0000419 Z M8.90920227,21.235341 L12.3719432,21.235341 C13.2223716,21.235341 13.9205659,21.9382307 13.9205659,22.9118152 C13.9205659,23.8853997 13.2223716,24.5882895 12.3719432,24.5882895 L8.90920227,24.5882895 L8.90920227,21.235341 Z M36.6281682,21.235341 L40.0909091,21.235341 L40.0909091,24.5882895 L36.6281682,24.5882895 C35.7777398,24.5882895 35.0795455,23.8853997 35.0795455,22.9118152 C35.0795455,21.9382307 35.7777398,21.235341 36.6281682,21.235341 Z M8.90920227,31.2941867 L13.3637477,31.2941867 L13.3637477,35.7647848 L8.90920227,35.7647848 L8.90920227,31.2941867 Z M35.636475,31.2941867 L40.0910205,31.2941867 L40.0910205,35.7647848 L35.636475,35.7647848 L35.636475,31.2941867 Z" id="Shape"></path>
                    </g>
                </g>
            </g>
        </g>
    </g>
</svg>