<?xml version="1.0" encoding="UTF-8"?>
<svg width="41px" height="41px" viewBox="0 0 41 41" version="1.1" xmlns="http://www.w3.org/2000/svg" xmlns:xlink="http://www.w3.org/1999/xlink">
    <title>Shape</title>
    <defs>
        <linearGradient x1="82.6008642%" y1="39.0104859%" x2="24.4946283%" y2="39.0104859%" id="linearGradient-1">
            <stop stop-color="#CE43FF" offset="0%"></stop>
            <stop stop-color="#4280FF" offset="51.4675754%"></stop>
            <stop stop-color="#70ED9B" offset="100%"></stop>
        </linearGradient>
    </defs>
    <g id="Portal-visuals" stroke="none" stroke-width="1" fill="none" fill-rule="evenodd">
        <g id="Your-GoShorty---Portal" transform="translate(-939, -902)" fill="url(#linearGradient-1)" fill-rule="nonzero">
            <g id="Form---Step-1" transform="translate(240, 348)">
                <g id="Group-2" transform="translate(181, 246)">
                    <g id="Group-Copy-3" transform="translate(365, 287)">
                        <g id="np_contact_643154_000000" transform="translate(153, 21)">
                            <path d="M38.370492,24.0015357 C41.0623497,20.006986 41.7314255,14.979392 40.1740386,10.4190618 C38.6185221,5.85690913 35.0170402,2.28947783 30.4448002,0.777249106 C25.8705914,-0.735127393 20.8543681,-0.0155134051 16.8895287,2.71871435 C12.9229174,5.4529421 10.4675226,9.8902251 10.2524221,14.7042353 C6.00317747,15.7144238 2.51717058,18.7430189 0.921390416,22.8106679 C-0.674488198,26.880238 -0.17650831,31.4732263 2.2538324,35.1060233 L0.386838514,39.3738087 C0.213793334,39.7624859 0.29839134,40.2165683 0.598340915,40.5167482 C0.898285566,40.8169182 1.35202956,40.9015784 1.74044108,40.728406 L6.00701187,38.8196483 C9.66022619,41.2152254 14.2536809,41.665446 18.30269,40.0280027 C22.3539142,38.3924806 25.3439101,34.8731253 26.3111241,30.6113003 C29.1202288,30.5054738 31.8446715,29.6242139 34.1866586,28.0656332 L39.2319229,30.3226469 C39.6203147,30.4938981 40.0740636,30.4130801 40.379782,30.1186881 C40.6874201,29.8204441 40.7777869,29.3605541 40.6047417,28.9680643 L38.370492,24.0015357 Z M13.3287535,38.9637336 C10.9580207,38.9983681 8.63921729,38.2787482 6.70296793,36.9106491 C6.40494294,36.6951442 6.01272655,36.6566637 5.67816401,36.8086697 L3.31894921,37.8554079 L4.36491863,35.4944592 C4.51296884,35.1558087 4.46489854,34.7632696 4.24186341,34.4689022 C2.19028668,31.7423587 1.48079947,28.2347762 2.31142225,24.9251134 C3.14204502,21.6154506 5.42432569,18.8584655 8.5198045,17.4284981 C11.615431,15.9969544 15.1938277,16.0431094 18.2510118,17.5554908 C21.3081466,19.0678673 23.5172832,21.8829279 24.2595523,25.2136732 C25.0036427,28.5443693 24.201869,32.0329874 22.0772417,34.7037705 C19.9545391,37.3745044 16.7376294,38.9407694 13.3289996,38.9638223 L13.3287535,38.9637336 Z M34.4730869,26.0546202 C34.1385292,25.9006881 33.7462735,25.9410947 33.4482829,26.1565996 C31.4659617,27.6228211 29.1144256,28.5040514 26.65908,28.7022667 L26.65908,27.7574932 C26.6763845,24.20745 25.2785481,20.7958226 22.7770814,18.2772476 C20.2756148,15.7585247 16.8763372,14.3404285 13.3289012,14.3346653 L12.3021776,14.3346653 C12.6098157,10.151555 14.8651718,6.35728936 18.3894735,4.09042402 C21.9157933,1.82375572 26.3014323,1.34659091 30.2298473,2.80507886 C34.1599359,4.26164575 37.176561,7.48269293 38.3726577,11.5021181 C39.5705265,15.521691 38.8091199,19.8701121 36.3191614,23.2413477 C36.0961262,23.5376657 36.0499756,23.9282542 36.1961061,24.2688258 L37.5900757,27.4302213 L34.4730869,26.0546202 Z" id="Shape"></path>
                        </g>
                    </g>
                </g>
            </g>
        </g>
    </g>
</svg>