<?xml version="1.0" encoding="UTF-8"?>
<svg width="32px" height="38px" viewBox="0 0 32 38" version="1.1" xmlns="http://www.w3.org/2000/svg" xmlns:xlink="http://www.w3.org/1999/xlink">
    <title>Combined Shape</title>
    <defs>
        <linearGradient x1="82.6008642%" y1="39.0104859%" x2="24.4946283%" y2="39.0104859%" id="linearGradient-1">
            <stop stop-color="#CE43FF" offset="0%"></stop>
            <stop stop-color="#4280FF" offset="51.4675754%"></stop>
            <stop stop-color="#70ED9B" offset="100%"></stop>
        </linearGradient>
    </defs>
    <g id="Portal-visuals" stroke="none" stroke-width="1" fill="none" fill-rule="evenodd">
        <g id="Your-GoShorty---Portal" transform="translate(-944, -613)" fill="url(#linearGradient-1)" fill-rule="nonzero">
            <g id="Form---Step-1" transform="translate(240, 348)">
                <g id="Group-2" transform="translate(181, 246)">
                    <g id="Group-Copy" transform="translate(365, 0)">
                        <g id="np_download-file_2636716_000000" transform="translate(158, 19)">
                            <path d="M18.8571897,0 C19.1160224,0 19.363421,0.104095271 19.5442078,0.291089719 L31.3831146,12.2684861 C31.5639014,12.4535509 31.6666667,12.7022534 31.6666667,12.9644286 L31.6666667,20.3670221 C31.6666667,20.6272875 31.5639014,20.8798245 31.3812097,21.0648893 C31.1985181,21.2499542 30.9492,21.3540544 30.6922917,21.3540544 L30.2051139,21.3540544 C29.9462812,21.3540544 29.6988875,21.2499542 29.5161958,21.0648893 C29.3335042,20.8798245 29.2307389,20.6272677 29.2307389,20.3670221 L29.2307389,14.7938562 C29.2307389,14.6646958 29.1793562,14.5374649 29.0880104,14.4449325 C28.9966646,14.3524001 28.8710653,14.30035 28.7435611,14.30035 L18.5128281,14.30035 C18.2539954,14.30035 18.0066017,14.1962498 17.82391,14.0111849 C17.6412183,13.8261201 17.5384531,13.5754929 17.5384531,13.3133178 L17.5384531,2.94968678 C17.5384531,2.82052633 17.4870704,2.69329548 17.3957246,2.60076306 C17.3043788,2.50823065 17.1787795,2.45618054 17.0512753,2.45618054 L2.92312017,2.45618054 C2.65288754,2.45618054 2.43594241,2.67787341 2.43594241,2.94968678 L2.43594241,35.0275922 C2.43594241,35.3013352 2.65288754,35.5210984 2.92312017,35.5210984 L15.7115365,35.5210984 C15.970335,35.5208764 16.2196336,35.6269012 16.4023253,35.8138957 C16.5869218,36.0008852 16.6877803,36.2553568 16.6858774,36.5194615 L16.6858774,37.0129678 C16.6858774,37.2732331 16.5831121,37.5257701 16.4004204,37.710835 C16.2177288,37.8958998 15.9684107,38 15.7115024,38 L0.974375014,38 C0.71554234,38 0.4681486,37.8958998 0.285456939,37.710835 C0.102765277,37.5257701 0,37.2732134 0,37.0129678 L0,0.987012474 C0,0.441456134 0.435780509,0 0.974355527,0 Z M25.3767029,21.2942809 C25.6336307,21.2942809 25.8829293,21.3983811 26.0656209,21.5834459 C26.2483126,21.7685108 26.3510779,22.0191379 26.3510779,22.2813131 L26.3510779,33.3560866 L29.6243278,30.5627426 C30.0106598,30.2369544 30.5777445,30.2620147 30.9355181,30.6205766 L31.3294451,31.0215484 C31.5178465,31.2066132 31.6244167,31.4630095 31.6244167,31.7290389 C31.6244167,31.997003 31.5178465,32.2514646 31.3294451,32.4365295 L25.776593,37.7032281 C25.401661,38.0579357 24.8193472,38.0579357 24.4463541,37.7032281 L18.8915991,32.4365295 C18.7031977,32.2514646 18.5966275,31.996998 18.5966275,31.7290389 C18.5966275,31.4630045 18.7031977,31.2066132 18.8915991,31.0215484 L19.2817213,30.6205766 C19.6376046,30.2620097 20.2065941,30.2369495 20.5929115,30.5627426 L23.91561,33.3560866 L23.9151696,22.2812934 C23.9151696,21.735737 24.3509501,21.2942809 24.8895251,21.2942809 Z M20.7964495,5.07214853 C20.6575405,4.93527655 20.4501099,4.89286759 20.2712231,4.96804833 C20.0904363,5.043234 19.9705448,5.22058534 19.9686419,5.41721797 L19.9629176,11.3451014 C19.9629176,11.6169147 20.1817676,11.8386302 20.4500953,11.8386302 L26.2962285,11.8386302 C26.4941445,11.8405323 26.6730313,11.71911 26.7491528,11.5340205 C26.8252743,11.348931 26.7834063,11.1349516 26.6425826,10.9942234 Z" id="Combined-Shape"></path>
                        </g>
                    </g>
                </g>
            </g>
        </g>
    </g>
</svg>