<?xml version="1.0" encoding="UTF-8"?>
<svg xmlns="http://www.w3.org/2000/svg" width="233" height="117" viewBox="0 0 233 117" fill="none">
  <g clip-path="url(#clip0_0_10780)">
    <rect width="233" height="117" rx="4" fill="#1D1E2C"></rect>
    <mask id="mask0_0_10780" style="mask-type:luminance" maskUnits="userSpaceOnUse" x="0" y="0" width="233" height="117">
      <rect width="233" height="117" rx="4" fill="white"></rect>
    </mask>
    <g mask="url(#mask0_0_10780)">
      <path fill-rule="evenodd" clip-rule="evenodd" d="M31.7312 -38.288C16.4493 -30.1428 3.94273 -19.9229 -5.43553 -7.9193C-15.8158 5.35857 -21.5139 18.6276 -21.9134 30.4535C-22.3639 43.7899 -16.1316 51.5958 -4.37522 52.4336C3.97513 53.0371 16.3562 51.5641 33.3386 47.9574C48.6329 44.8672 61.1539 43.1016 70.5448 42.7097C78.4894 42.3842 85.1124 44.5403 90.7885 49.2968C95.8647 53.5578 98.2281 61.9367 97.8138 74.2008C97.4537 84.8613 94.2098 96.0447 87.9001 108.384C81.4704 120.951 72.6331 132.774 60.8841 144.529C48.8595 156.557 34.611 167.001 18.5344 175.57C-1.06738 186.018 -18.312 191.619 -32.7219 192.219C-47.1049 192.82 -57.7012 190.394 -64.2162 185.008L-90.147 217.037C-80.7888 224.773 -66.5279 228.298 -47.7618 227.514C-29.0083 226.732 -7.0559 219.704 17.4853 206.623C38.4255 195.462 57.3897 181.454 73.8534 164.985C90.7238 148.107 104.169 129.988 113.82 111.125C123.57 92.0591 128.797 73.9788 129.358 57.3875C130.001 38.3458 125.775 24.8694 116.792 17.3289C108.344 10.2491 97.85 6.91299 85.5932 7.41492C74.9296 7.86001 61.0856 9.79035 44.3072 13.181C26.1482 17.0369 17.2658 17.4795 13.0015 17.1714C9.76952 16.9412 9.56587 15.5623 9.63079 13.6404C9.66945 12.496 9.73415 10.5809 13.3354 5.97404C16.8062 1.53196 22.8044 -3.03559 30.6821 -7.23402C37.7399 -10.9961 44.1069 -12.9051 50.1439 -13.0706C56.872 -13.2528 62.3983 -12.3602 66.5698 -10.4174L89.6044 -44.2696C84.3448 -46.72 77.9384 -48.0898 70.5078 -48.3576C68.8877 -48.416 67.2184 -48.422 65.502 -48.3756C55.1182 -48.0911 43.7561 -44.6973 31.7312 -38.288Z" fill="url(#paint0_linear_0_10780)"></path>
    </g>
  </g>
  <defs>
    <linearGradient id="paint0_linear_0_10780" x1="86.9073" y1="-20.5393" x2="3.45413" y2="-26.3321" gradientUnits="userSpaceOnUse">
      <stop stop-color="#CE43FF"></stop>
      <stop offset="0.514676" stop-color="#4280FF"></stop>
      <stop offset="1" stop-color="#70ED9B"></stop>
    </linearGradient>
    <clipPath id="clip0_0_10780">
      <rect width="233" height="117" fill="white"></rect>
    </clipPath>
  </defs>
</svg>
