<?xml version="1.0" encoding="UTF-8"?>
<svg width="39px" height="38px" viewBox="0 0 39 38" version="1.1" xmlns="http://www.w3.org/2000/svg" xmlns:xlink="http://www.w3.org/1999/xlink">
    <title>np_help_2435014_000000</title>
    <defs>
        <linearGradient x1="86.6630645%" y1="45.7235581%" x2="42.820048%" y2="55.8136001%" id="linearGradient-1">
            <stop stop-color="#CE43FF" offset="0%"></stop>
            <stop stop-color="#4280FF" offset="51.4675754%"></stop>
            <stop stop-color="#70ED9B" offset="100%"></stop>
        </linearGradient>
    </defs>
    <g id="Portal-visuals" stroke="none" stroke-width="1" fill="none" fill-rule="evenodd">
        <g id="Your-GoShorty---Portal" transform="translate(-577, -903)" fill="url(#linearGradient-1)" fill-rule="nonzero">
            <g id="Form---Step-1" transform="translate(240, 348)">
                <g id="Group-2" transform="translate(181, 246)">
                    <g id="Group-Copy-4" transform="translate(0.3263, 287)">
                        <g id="np_help_2435014_000000" transform="translate(156, 22)">
                            <path d="M0,0 L0,27.0302312 L28.8123824,27.0302312 L38,38 L38,0 L0,0 Z M35.7647059,31.8280972 L29.8400588,24.7777119 L2.23529412,24.7777119 L2.23529412,2.25251926 L35.7647059,2.25251926 L35.7647059,31.8280972 Z M14.9770294,10.068198 L11.8467235,9.68544428 C11.9274903,8.24242413 12.59985,6.89620599 13.7021853,5.97008269 C14.9508206,4.91641049 16.5464853,4.37090664 18.1727735,4.43684914 C19.8689147,4.34005839 21.5387912,4.89659395 22.8442029,5.99204475 C23.9247441,6.8741313 24.5556,8.19619117 24.5664971,9.59517457 C24.5883258,10.3936926 24.3700371,11.1789772 23.94,11.8476938 C23.1607206,12.8881888 22.2438588,13.8120596 21.2135559,14.5973441 C20.678745,14.9866977 20.2247176,15.4750382 19.8710941,16.038168 C19.6571709,16.6672967 19.5742191,17.3338171 19.6266088,17.9981414 L16.5639765,17.9981414 L16.5639765,17.1864461 C16.52905,16.3263779 16.6971329,15.4684496 17.0551321,14.6853613 C17.5615659,13.8098634 18.2382732,13.0421485 19.0437615,12.432842 C19.683335,11.9488995 20.2814438,11.4143654 20.8337291,10.833666 C21.1196903,10.4509123 21.2746744,9.98457884 21.2790444,9.50501749 C21.2790444,8.84728186 20.9952682,8.22260196 20.4975856,7.79360966 C19.8754474,7.26567546 19.0721385,7.00612893 18.2622915,7.07212774 C17.450265,7.03033281 16.6534944,7.29429935 16.0269974,7.81562804 C15.4463238,8.43377564 15.0774444,9.22345258 14.9770238,10.0681473 L14.9770294,10.068198 Z M16.5858265,19.078275 L19.9824118,19.078275 L19.9845951,22.525249 L16.5639804,22.525249 L16.5858265,19.078275 Z" id="Shape"></path>
                        </g>
                    </g>
                </g>
            </g>
        </g>
    </g>
</svg>