<?xml version="1.0" encoding="UTF-8"?>
<svg width="18px" height="20px" viewBox="0 0 18 20" version="1.1" xmlns="http://www.w3.org/2000/svg" xmlns:xlink="http://www.w3.org/1999/xlink">
    <title>Icons/icon-user</title>
    <g id="Portal-visuals" stroke="none" stroke-width="1" fill="none" fill-rule="evenodd">
        <g id="Your-GoShorty---Portal" transform="translate(-1584, -256)" fill="#4280FF" fill-rule="nonzero">
            <g id="Icons/icon-user" transform="translate(1584, 256)">
                <path d="M13,12 C15.6887547,12 17.8818181,14.1223067 17.9953805,16.7831104 L18,17 L18,19 C18,19.5522847 17.5522847,20 17,20 C16.4871642,20 16.0644928,19.6139598 16.0067277,19.1166211 L16,19 L16,17 C16,15.4023191 14.75108,14.0963391 13.1762728,14.0050927 L13,14 L5,14 C3.40231912,14 2.09633912,15.24892 2.00509269,16.8237272 L2,17 L2,19 C2,19.5522847 1.55228475,20 1,20 C0.487164161,20 0.0644928393,19.6139598 0.00672773133,19.1166211 L0,19 L0,17 C0,14.3112453 2.12230671,12.1181819 4.78311038,12.0046195 L5,12 L13,12 Z" id="Path"></path>
                <path d="M9,0 C6.23857625,0 4,2.23857625 4,5 C4,7.76142375 6.23857625,10 9,10 C11.7614237,10 14,7.76142375 14,5 C14,2.23857625 11.7614237,0 9,0 Z M9,2 C10.6568542,2 12,3.34314575 12,5 C12,6.65685425 10.6568542,8 9,8 C7.34314575,8 6,6.65685425 6,5 C6,3.34314575 7.34314575,2 9,2 Z" id="Oval"></path>
            </g>
        </g>
    </g>
</svg>