<?xml version="1.0" encoding="utf-8"?>
<!-- Generator: Adobe Illustrator 28.0.0, SVG Export Plug-In . SVG Version: 6.00 Build 0)  -->
<svg version="1.1" id="Layer_1" xmlns="http://www.w3.org/2000/svg" xmlns:xlink="http://www.w3.org/1999/xlink" x="0px" y="0px"
	 viewBox="0 0 64 44" style="enable-background:new 0 0 64 44;" xml:space="preserve">
<style type="text/css">
	.st0{opacity:0.9;}
	.st1{enable-background:new    ;}
	.st2{fill:#303030;}
	.st3{fill-rule:evenodd;clip-rule:evenodd;fill:#70ED9B;}
	.st4{fill:none;stroke:#73FDA3;stroke-width:2;}
</style>
<g id="Portal-visuals">
	<g id="Your-GoShorty---Portal-Mobile-Quote-3" transform="translate(-12, -20)">
		<g id="Group" transform="translate(12, 22)">
			<g id="Sign-In" transform="translate(0, 28)" class="st0">
				<g class="st1">
					<path class="st2" d="M2.8,9H1.5V2.7h1.2l3.1,4h0v-4h1.3V9H5.9L2.8,4.9h0V9z"/>
					<path class="st2" d="M13.5,9H8.7V2.7h4.6v1.2h-3.3v1.3h2.6v1.2h-2.6v1.4h3.4V9z"/>
					<path class="st2" d="M17.3,9h-1.2L14,2.7h1.4l1.3,4.2h0l1.3-4.2h1.2l1.3,4.2h0L22,2.7h1.4L21.3,9h-1.2l-1.3-4.3h0L17.3,9z"/>
					<path class="st2" d="M32.6,9.3v1.2c-0.1,0-0.2,0-0.4,0c-0.4,0-0.8-0.1-1.2-0.2c-0.4-0.1-0.7-0.3-0.9-0.5
						c-0.2-0.2-0.4-0.4-0.5-0.7c-0.2,0-0.3,0-0.5,0c-0.6,0-1.2-0.1-1.7-0.4S26.5,8,26.2,7.5s-0.4-1.1-0.4-1.7c0-0.6,0.1-1.2,0.4-1.7
						s0.7-0.9,1.2-1.2s1.1-0.4,1.7-0.4s1.2,0.1,1.7,0.4s0.9,0.7,1.2,1.2c0.3,0.5,0.5,1.1,0.5,1.7c0,0.6-0.2,1.2-0.5,1.7
						s-0.7,0.9-1.2,1.2C31,8.9,31.2,9,31.4,9.2s0.5,0.2,0.9,0.2C32.4,9.4,32.5,9.3,32.6,9.3z M30.2,7.6c0.3-0.2,0.6-0.4,0.7-0.7
						c0.2-0.3,0.3-0.7,0.3-1s-0.1-0.7-0.3-1c-0.2-0.3-0.4-0.6-0.7-0.7c-0.3-0.2-0.7-0.3-1-0.3s-0.7,0.1-1,0.3
						c-0.3,0.2-0.6,0.4-0.7,0.7c-0.2,0.3-0.3,0.7-0.3,1s0.1,0.7,0.3,1c0.2,0.3,0.4,0.6,0.7,0.7s0.7,0.3,1,0.3S29.9,7.8,30.2,7.6z"/>
					<path class="st2" d="M35,8.8c-0.4-0.2-0.7-0.5-1-1c-0.2-0.4-0.4-0.9-0.4-1.4V2.7h1.3v3.7c0,0.3,0.1,0.5,0.2,0.8
						c0.1,0.2,0.3,0.4,0.5,0.5c0.2,0.1,0.5,0.2,0.7,0.2c0.3,0,0.5-0.1,0.7-0.2s0.4-0.3,0.5-0.5c0.1-0.2,0.2-0.5,0.2-0.7V2.7h1.3v3.7
						c0,0.5-0.1,1-0.4,1.4c-0.2,0.4-0.6,0.7-1,1C37.5,9,37,9.1,36.5,9.1S35.5,9,35,8.8z"/>
					<path class="st2" d="M42.1,8.7c-0.5-0.3-0.9-0.7-1.2-1.2s-0.4-1.1-0.4-1.7c0-0.6,0.1-1.2,0.4-1.7s0.7-0.9,1.2-1.2
						c0.5-0.3,1.1-0.4,1.7-0.4c0.6,0,1.2,0.1,1.7,0.4c0.5,0.3,0.9,0.7,1.2,1.2c0.3,0.5,0.5,1.1,0.5,1.7c0,0.6-0.1,1.2-0.5,1.7
						c-0.3,0.5-0.7,0.9-1.2,1.2C45,9,44.5,9.1,43.8,9.1C43.2,9.1,42.6,9,42.1,8.7z M44.9,7.6c0.3-0.2,0.6-0.4,0.7-0.7
						c0.2-0.3,0.3-0.7,0.3-1s-0.1-0.7-0.3-1c-0.2-0.3-0.4-0.6-0.7-0.7c-0.3-0.2-0.7-0.3-1-0.3s-0.7,0.1-1,0.3
						c-0.3,0.2-0.6,0.4-0.7,0.7c-0.2,0.3-0.3,0.7-0.3,1s0.1,0.7,0.3,1c0.2,0.3,0.4,0.6,0.7,0.7c0.3,0.2,0.7,0.3,1,0.3
						S44.5,7.8,44.9,7.6z"/>
					<path class="st2" d="M50.8,9h-1.4V4h-1.8V2.7h5V4h-1.8V9z"/>
					<path class="st2" d="M58.4,9h-4.7V2.7h4.6v1.2H55v1.3h2.6v1.2H55v1.4h3.4V9z"/>
				</g>
			</g>
			<g id="Buttons-_x2F_-Primary" transform="translate(32, 13) rotate(-360) translate(-32, -13)translate(19, 0)">
				<g id="Rectangle">
					<g>
						
							<image style="overflow:visible;opacity:0.45;enable-background:new    ;" width="60" height="60" xlink:href="72AA9FB0243374FB.png"  transform="matrix(1 0 0 1 -17 -17)">
						</image>
						<g>
							<path class="st3" d="M13,2L13,2c6.1,0,11,4.9,11,11l0,0c0,6.1-4.9,11-11,11l0,0C6.9,24,2,19.1,2,13l0,0C2,6.9,6.9,2,13,2z"/>
							<path class="st4" d="M13,2L13,2c6.1,0,11,4.9,11,11l0,0c0,6.1-4.9,11-11,11l0,0C6.9,24,2,19.1,2,13l0,0C2,6.9,6.9,2,13,2z"/>
						</g>
					</g>
				</g>
				<g id="Icons_x2F_icon-arrow-right-circle" transform="translate(5.3, 5.3)">
					<path id="Oval" d="M7.7,0C3.4,0,0,3.4,0,7.7s3.4,7.7,7.7,7.7s7.7-3.4,7.7-7.7S12,0,7.7,0z M7.7,1.4c3.5,0,6.3,2.8,6.3,6.3
						S11.2,14,7.7,14s-6.3-2.8-6.3-6.3S4.2,1.4,7.7,1.4z"/>
					<path id="Path" d="M7.2,4.4c0.3-0.3,0.6-0.3,0.9-0.1l0.1,0.1L11,7.2c0.3,0.3,0.3,0.6,0.1,0.9L11,8.2L8.2,11
						c-0.3,0.3-0.7,0.3-1,0s-0.3-0.6-0.1-0.9L7.2,10l2.3-2.3L7.2,5.4C7,5.1,6.9,4.7,7.2,4.4L7.2,4.4z"/>
					<path id="Path_00000114054864835498690040000011077725699496298133_" d="M10.5,7c0.4,0,0.7,0.3,0.7,0.7s-0.3,0.7-0.6,0.7h-0.1
						H4.9c-0.4,0-0.7-0.3-0.7-0.7C4.2,7.3,4.5,7,4.8,7h0.1H10.5z"/>
				</g>
			</g>
		</g>
	</g>
</g>
</svg>
